HIERARCHY
ROOT Hips
{
	OFFSET 0.000000 0.000000 0.000000 
	CHANNELS 6 Xposition Yposition Zposition Yrotation Zrotation Xrotation 
	JOINT Lumbar
	{
		OFFSET 0.000000 0.000000 0.000000 
		CHANNELS 3 Zrotation Xrotation Yrotation
		JOINT Neck
		{
			OFFSET 0.000000 0.445665 0.000000 
			CHANNELS 3 Zrotation Xrotation Yrotation
			End Site
			{
				OFFSET 0.000000 0.227535 0.000000 
			}
		}
		JOINT RightShoulder
		{
			OFFSET 0.019635 0.377685 0.194865 
			CHANNELS 3 Zrotation Xrotation Yrotation
			JOINT RightElbow
			{
				OFFSET 0.000000 -0.243375 0.000000 
				CHANNELS 2 Zrotation Yrotation
				JOINT RightWrist
				{
					OFFSET 0.000000 -0.264825 0.000000 
					CHANNELS 2 Zrotation Xrotation
					End Site
					{
						OFFSET 0.006600 -0.176220 0.000990 
					}
				}
			}
		}
		JOINT LeftShoulder
		{
			OFFSET 0.019635 0.377685 -0.194865 
			CHANNELS 3 Zrotation Xrotation Yrotation
			JOINT LeftElbow
			{
				OFFSET 0.000000 -0.243375 0.000000 
				CHANNELS 2 Zrotation Yrotation
				JOINT LeftWrist
				{
					OFFSET 0.000000 -0.264825 0.000000 
					CHANNELS 2 Zrotation Xrotation
					End Site
					{
						OFFSET 0.006600 -0.176220 -0.000990 
					}
				}
			}
		}
	}
	JOINT RightHip
	{
		OFFSET 0.052140 -0.069960 0.075570 
		CHANNELS 3 Zrotation Xrotation Yrotation
		JOINT RightKnee
		{
			OFFSET 0.000000 -0.402270 0.000000 
			CHANNELS 1 Zrotation
			JOINT RightAnkle
			{
				OFFSET 0.000000 -0.404085 0.000000 
				CHANNELS 3 Zrotation Xrotation Yrotation
				End Site
				{
					OFFSET 0.204105 -0.089430 0.008415 
				}
			}
		}
	}
	JOINT LeftHip
	{
		OFFSET 0.052140 -0.069960 -0.075570 
		CHANNELS 3 Zrotation Xrotation Yrotation
		JOINT LeftKnee
		{
			OFFSET 0.000000 -0.402270 0.000000 
			CHANNELS 1 Zrotation
			JOINT LeftAnkle
			{
				OFFSET 0.000000 -0.404085 0.000000 
				CHANNELS 3 Zrotation Xrotation Yrotation
				End Site
				{
					OFFSET 0.204105 -0.089430 -0.008415 
				}
			}
		}
	}
}
MOTION
Frames: 30
Frame Time: 0.02
-0.86615 -0.53448 0.03133 22.146 47.45404 -6.78998 -22.02775 4.73594 -5.39054 -40.22348 5.03978 -2.11994 40.98428 2.66483 55.4863 23.22557 65.92972 44.7965 -4.40177 40.73865 10.19191 -55.63252 25.28235 -80.29241 49.09765 3.11758 118.47596 -8.16865 -1.88327 -134.22932 -19.60959 -0.29718 -2.94755 117.86358 4.39665 0.37814 -133.6337 -18.50006 1.51898 3.53405
-0.86581 -0.53383 0.03128 22.12323 47.7885 -6.68451 -22.00357 4.59237 -5.57035 -40.42943 5.20103 -2.11994 40.82442 3.02769 54.18889 22.63902 66.70328 44.4285 -4.26534 40.63828 10.24507 -55.63262 24.93094 -79.67867 48.5169 3.16877 117.94312 -8.13625 -1.98487 -134.00788 -19.70423 -0.31451 -2.96031 117.49799 4.41131 0.4712 -133.41593 -18.70753 1.50005 3.53441
-0.86527 -0.53297 0.03126 22.06486 48.12559 -6.51363 -22.04943 4.40351 -5.7583 -40.6146 5.36869 -2.11994 40.60371 3.42037 52.54541 22.10662 67.96532 44.15665 -4.22097 40.52531 10.31837 -55.63283 24.63778 -78.95498 47.97344 3.2279 117.41467 -8.11939 -2.09767 -133.79585 -19.76651 -0.33865 -2.97458 117.16189 4.43277 0.57614 -133.19783 -18.90545 1.47609 3.53148
-0.86484 -0.53222 0.03123 22.02353 48.45676 -6.37673 -22.06218 4.24022 -5.93769 -40.80251 5.53052 -2.11994 40.41781 3.78751 51.11422 21.56292 68.96082 43.85021 -4.13854 40.4204 10.38213 -55.63298 24.32803 -78.30161 47.42865 3.2802 116.89421 -8.09511 -2.20264 -133.58551 -19.84167 -0.35892 -2.98774 116.81816 4.44979 0.66961 -132.9867 -19.10194 1.45498 3.53007
-0.86433 -0.53138 0.03118 21.97808 48.80956 -6.22209 -22.08051 4.05548 -6.13799 -41.02372 5.70771 -2.11994 40.20301 4.20738 49.451 20.95725 70.14054 43.50039 -4.03168 40.3052 10.44725 -55.63315 23.9724 -77.56042 46.80796 3.34589 116.32833 -8.07243 -2.32079 -133.3498 -19.9237 -0.38243 -3.00269 116.4474 4.47262 0.78771 -132.74659 -19.3228 1.43148 3.52858
-0.86394 -0.53069 0.03118 21.93273 49.11691 -6.08842 -22.10377 3.90465 -6.29638 -41.16846 5.85257 -2.11994 40.03341 4.52389 48.18787 20.49542 71.05513 43.26515 -4.00049 40.20865 10.51411 -55.63332 23.72716 -76.97645 46.35738 3.38598 115.85959 -8.05021 -2.41376 -133.16919 -19.984 -0.40086 -3.01428 116.14109 4.48509 0.85808 -132.56665 -19.49075 1.41174 3.52647
-0.86391 -0.5305 0.0313 21.89898 49.30296 -6.03311 -22.12369 3.86047 -6.33894 -41.10999 5.9156 -2.11994 40.00402 4.54516 48.12584 20.42178 71.10441 43.32935 -4.16007 40.16614 10.58471 -55.63347 23.78038 -76.85741 46.37611 3.34933 115.65518 -8.02374 -2.43139 -133.13911 -19.99286 -0.40307 -3.01602 116.00416 4.46512 0.78935 -132.55526 -19.51341 1.40387 3.5235
-0.86401 -0.53048 0.03146 21.8662 49.44214 -6.00042 -22.14616 3.85172 -6.33871 -40.97406 5.94418 -2.11994 40.02195 4.46151 48.47635 20.49121 70.87292 43.50518 -4.39305 40.14297 10.65577 -55.6336 23.942 -76.89992 46.56475 3.28738 115.54935 -7.9975 -2.42355 -133.16409 -19.98095 -0.40002 -3.01438 115.93171 4.43483 0.67306 -132.6041 -19.48338 1.39991 3.52002
-0.86404 -0.53038 0.03161 21.83132 49.59941 -5.95444 -22.16722 3.82549 -6.35677 -40.87102 5.98193 -2.11994 40.0177 4.42724 48.63044 20.49307 70.77929 43.62632 -4.59091 40.11134 10.72406 -55.63374 24.04941 -76.86634 46.67133 3.23969 115.40063 -7.97223 -2.42912 -133.1634 -19.97828 -0.3997 -3.01444 115.831 4.41064 0.58155 -132.62386 -19.47846 1.39398 3.51672
-0.86408 -0.53029 0.03175 21.80206 49.77022 -5.91866 -22.1915 3.80334 -6.37986 -40.77709 6.04609 -2.11994 40.01421 4.38694 48.81013 20.50701 70.65932 43.76719 -4.79943 40.07792 10.8036 -55.6339 24.1793 -76.84045 46.79909 3.18066 115.24386 -7.9429 -2.42747 -133.16563 -19.97537 -0.39818 -3.01387 115.72685 4.38077 0.47718 -132.65063 -19.46839 1.38868 3.5135
-0.86414 -0.53021 0.03191 21.76197 49.9018 -5.86811 -22.2091 3.78188 -6.38238 -40.64607 6.0485 -2.11994 40.02114 4.33383 49.03903 20.52969 70.52121 43.89254 -5.00177 40.05292 10.85987 -55.63402 24.2878 -76.83797 46.92308 3.1391 115.12734 -7.92196 -2.43451 -133.17492 -19.96836 -0.39782 -3.01377 115.64482 4.36017 0.38801 -132.67733 -19.45653 1.38308 3.51004
-0.86422 -0.53009 0.03208 21.69043 49.93492 -5.76976 -22.20424 3.75242 -6.33682 -40.43122 5.87548 -2.11994 40.04556 4.27124 49.30468 20.5363 70.39903 43.94488 -5.17141 40.04693 10.84905 -55.63404 24.30702 -76.86482 46.99175 3.15205 115.09717 -7.92358 -2.47316 -133.18878 -19.95601 -0.4019 -3.01585 115.60819 4.36801 0.35376 -132.68748 -19.45348 1.37554 3.50603
-0.86431 -0.52996 0.03226 21.60847 49.93033 -5.65658 -22.19271 3.72304 -6.27228 -40.18192 5.6438 -2.11994 40.07903 4.19919 49.60714 20.54748 70.26623 43.97773 -5.33152 40.04865 10.81516 -55.63403 24.3014 -76.9096 47.05118 3.1833 115.10437 -7.93369 -2.52117 -133.20814 -19.94026 -0.40728 -3.01849 115.59153 4.38549 0.33614 -132.69591 -19.45023 1.36762 3.50184
-0.86438 -0.52985 0.03245 21.53218 49.94418 -5.55124 -22.18628 3.69447 -6.21754 -39.94864 5.44787 -2.11994 40.10855 4.1312 49.89319 20.55974 70.13774 44.021 -5.49398 40.04664 10.79355 -55.63404 24.30931 -76.94374 47.11697 3.2062 115.09471 -7.94019 -2.56389 -133.22582 -19.92567 -0.41207 -3.02084 115.56543 4.39826 0.31005 -132.70603 -19.44666 1.35998 3.49776
-0.8645 -0.52971 0.03262 21.45155 49.95139 -5.44115 -22.17183 3.6629 -6.15645 -39.71088 5.213 -2.11994 40.13922 4.06062 50.19161 20.56375 70.00241 44.06193 -5.66712 40.0465 10.76456 -55.63405 24.31157 -76.99321 47.17982 3.22876 115.08738 -7.94561 -2.6099 -133.24172 -19.91196 -0.41673 -3.02326 115.5428 4.41189 0.28624 -132.71389 -19.44338 1.35197 3.4935
-0.86453 -0.52962 0.03282 21.37799 49.96347 -5.33818 -22.17171 3.63793 -6.10451 -39.47558 5.04497 -2.11994 40.16874 3.99451 50.46826 20.58411 69.88182 44.10127 -5.81518 40.04375 10.74524 -55.63405 24.31831 -77.01387 47.24407 3.25622 115.08352 -7.95535 -2.65186 -133.26225 -19.89585 -0.42198 -3.02567 115.5173 4.42636 0.26216 -132.7259 -19.43965 1.34467 3.4896
-0.8643 -0.52962 0.0331 21.32196 50.00354 -5.24926 -22.21924 3.62394 -6.0838 -39.25374 5.08254 -2.11994 40.19524 3.94372 50.66904 20.64803 69.81016 44.1436 -5.89231 40.03435 10.75997 -55.63405 24.34249 -76.94177 47.31644 3.29699 115.07327 -7.97427 -2.6784 -133.29084 -19.8745 -0.42913 -3.02829 115.4746 4.43902 0.23422 -132.74399 -19.43914 1.33857 3.48649
-0.864 -0.52969 0.03342 21.27411 50.04905 -5.1694 -22.28029 3.61758 -6.07296 -39.03648 5.18834 -2.11994 40.21964 3.89818 50.84567 20.72761 69.75412 44.18399 -5.94479 40.02157 10.78492 -55.63404 24.37163 -76.84078 47.38937 3.34147 115.06592 -7.99732 -2.70097 -133.32416 -19.85087 -0.43674 -3.03083 115.42882 4.45252 0.20551 -132.76694 -19.43774 1.33332 3.48379
-0.86374 -0.52976 0.03372 21.22566 50.0888 -5.09166 -22.33074 3.61249 -6.05694 -38.81844 5.25864 -2.11994 40.24319 3.8503 51.03595 20.79961 69.68844 44.22294 -6.01095 40.00854 10.80401 -55.63404 24.39859 -76.75816 47.45984 3.38152 115.0613 -8.01894 -2.72685 -133.35735 -19.82799 -0.44375 -3.03319 115.38701 4.46692 0.17672 -132.79134 -19.43399 1.32826 3.48107
-0.86343 -0.52969 0.03403 21.16428 50.14104 -4.98806 -22.39932 3.58809 -6.04309 -38.59292 5.34573 -2.11994 40.27453 3.80173 51.2172 20.87379 69.63242 44.27094 -6.06685 40.00303 10.82733 -55.63403 24.4245 -76.65466 47.53921 3.43351 115.04123 -8.03912 -2.74697 -133.38258 -19.80612 -0.45245 -3.03649 115.33509 4.47647 0.15018 -132.80086 -19.44139 1.32083 3.47766
-0.86321 -0.52993 0.03432 21.13118 50.16913 -4.93941 -22.434 3.60486 -6.02742 -38.38545 5.41495 -2.11994 40.28925 3.75608 51.41009 20.94711 69.5608 44.30008 -6.13778 39.98134 10.84468 -55.63403 24.45402 -76.58686 47.60052 3.46161 115.05319 -8.06298 -2.77767 -133.425 -19.78175 -0.45775 -3.03782 115.30321 4.49592 0.1187 -132.84179 -19.42592 1.31843 3.47575
-0.8633 -0.53109 0.03459 21.18064 50.1286 -5.05117 -22.36694 3.74094 -6.0033 -38.21899 5.4175 -2.11994 40.25643 3.71666 51.64817 21.01365 69.43719 44.27555 -6.26133 39.91252 10.8421 -55.63403 24.49289 -76.63034 47.60941 3.41972 115.1557 -8.09768 -2.84158 -133.51746 -19.75018 -0.45315 -3.03342 115.32728 4.54474 0.07263 -132.97495 -19.34279 1.33066 3.47821
-0.86349 -0.53256 0.03485 21.25717 50.06387 -5.21602 -22.2662 3.91684 -5.97725 -38.07216 5.40019 -2.11994 40.20729 3.68012 51.89735 21.0789 69.29825 44.23257 -6.39998 39.8281 10.83343 -55.63403 24.53526 -76.70962 47.60057 3.35413 115.28967 -8.13563 -2.91572 -133.62635 -19.71636 -0.44518 -3.02708 115.37155 4.60303 0.02171 -133.13837 -19.23754 1.34774 3.48213
-0.86363 -0.53385 0.03511 21.31708 50.01081 -5.34939 -22.18415 4.06954 -5.95287 -37.92158 5.39265 -2.11994 40.167 3.6427 52.13637 21.14499 69.16994 44.1995 -6.52839 39.75297 10.82829 -55.63403 24.5757 -76.76863 47.60149 3.30134 115.40715 -8.17085 -2.98308 -133.7252 -19.68418 -0.43901 -3.0218 115.4065 4.65551 -0.02628 -133.28351 -19.14557 1.36196 3.48519
-0.86379 -0.53533 0.03539 21.39538 49.9551 -5.5138 -22.08844 4.24387 -5.92563 -37.7493 5.38414 -2.11994 40.12065 3.60378 52.39567 21.21032 69.02727 44.15992 -6.67005 39.66853 10.82032 -55.63404 24.6176 -76.84333 47.59534 3.24013 115.53384 -8.21131 -3.05909 -133.83496 -19.64933 -0.43175 -3.01576 115.44182 4.71442 -0.0772 -133.44772 -19.04006 1.37896 3.48908
-0.86393 -0.53649 0.03562 21.44185 49.89906 -5.62643 -22.01278 4.38274 -5.90355 -37.62682 5.37228 -2.11994 40.08297 3.56842 52.61629 21.27699 68.90996 44.1295 -6.78822 39.5997 10.81664 -55.63404 24.65741 -76.89447 47.59958 3.19078 115.64899 -8.24185 -3.11983 -133.926 -19.61948 -0.42594 -3.01084 115.48134 4.76213 -0.12336 -133.57959 -18.95735 1.39134 3.49159
-0.86397 -0.53666 0.0357 21.39228 49.84854 -5.57965 -22.00267 4.41197 -5.89805 -37.63706 5.35353 -2.11994 40.07416 3.54371 52.72218 21.3454 68.87134 44.12948 -6.83541 39.57884 10.82657 -55.63404 24.68893 -76.86981 47.63774 3.17995 115.72264 -8.24161 -3.13331 -133.95988 -19.60455 -0.4251 -3.00961 115.52655 4.77686 -0.15329 -133.61237 -18.94466 1.38943 3.4898
-0.86398 -0.5365 0.03572 21.31001 49.79839 -5.47946 -22.01345 4.40445 -5.89745 -37.69662 5.33213 -2.11994 40.07451 3.52218 52.7899 21.4155 68.85703 44.13929 -6.85842 39.57405 10.84092 -55.63404 24.71848 -76.8207 47.6868 3.18189 115.78395 -8.23166 -3.13145 -133.97457 -19.59465 -0.42582 -3.00956 115.57547 4.77994 -0.1785 -133.61191 -18.95541 1.38276 3.48658
-0.86401 -0.53651 0.03576 21.24362 49.74774 -5.406 -22.01329 4.4151 -5.8933 -37.73372 5.31338 -2.11994 40.07001 3.4982 52.87859 21.48628 68.82924 44.14412 -6.89499 39.56118 10.85307 -55.63404 24.75008 -76.78424 47.73026 3.17797 115.85214 -8.22796 -3.13851 -133.999 -19.58206 -0.42576 -3.00891 115.62335 4.78813 -0.20727 -133.62827 -18.95432 1.37849 3.48407
-0.86404 -0.53648 0.0358 21.17374 49.69772 -5.32423 -22.01806 4.42109 -5.89453 -37.77218 5.28826 -2.11994 40.06766 3.47858 52.95217 21.55108 68.81428 44.15016 -6.92368 39.55096 10.8659 -55.63404 24.77714 -76.7426 47.7758 3.17341 115.91601 -8.21699 -3.13825 -134.01981 -19.57102 -0.42589 -3.00844 115.66924 4.79736 -0.23076 -133.63871 -18.95736 1.37339 3.48136
